<svg width="76" height="100" viewBox="0 0 76 100" fill="none" xmlns="http://www.w3.org/2000/svg">
<mask id="path-1-inside-1" fill="white">
<path d="M5.22266 56.7796C-3.70854 41.3103 1.59164 21.5298 17.0609 12.5986L38.8824 0L39.4236 27.2629C51.8637 25.8036 64.5577 31.6843 71.2181 43.2204C80.1493 58.6897 74.8491 78.4702 59.3798 87.4014L37.5583 100L37.0171 72.7371C24.577 74.1964 11.883 68.3157 5.22266 56.7796Z"/>
</mask>
<path d="M5.22266 56.7796C-3.70854 41.3103 1.59164 21.5298 17.0609 12.5986L38.8824 0L39.4236 27.2629C51.8637 25.8036 64.5577 31.6843 71.2181 43.2204C80.1493 58.6897 74.8491 78.4702 59.3798 87.4014L37.5583 100L37.0171 72.7371C24.577 74.1964 11.883 68.3157 5.22266 56.7796Z" fill="white"/>
<path d="M5.22266 56.7796L6.08868 56.2796L5.22266 56.7796ZM17.0609 12.5986L17.5609 13.4646L17.0609 12.5986ZM37.0171 72.7371L38.0169 72.7172L37.9951 71.6155L36.9006 71.7439L37.0171 72.7371ZM38.8824 0L39.8822 -0.0198479L39.8486 -1.71254L38.3824 -0.866025L38.8824 0ZM71.2181 43.2204L70.352 43.7204L71.2181 43.2204ZM59.3798 87.4014L58.8798 86.5354L59.3798 87.4014ZM39.4236 27.2629L38.4238 27.2827L38.4457 28.3845L39.5401 28.2561L39.4236 27.2629ZM37.5583 100L36.5585 100.02L36.5921 101.713L38.0583 100.866L37.5583 100ZM6.08868 56.2796C-2.56637 41.2886 2.56993 22.1197 17.5609 13.4646L16.5609 11.7326C0.613346 20.9399 -4.85071 41.332 4.35663 57.2796L6.08868 56.2796ZM36.9006 71.7439C24.8429 73.1584 12.5423 67.4577 6.08868 56.2796L4.35663 57.2796C11.2237 69.1737 24.3111 75.2345 37.1336 73.7303L36.9006 71.7439ZM17.5609 13.4646L39.3824 0.866025L38.3824 -0.866025L16.5609 11.7326L17.5609 13.4646ZM70.352 43.7204C79.0071 58.7114 73.8708 77.8803 58.8798 86.5354L59.8798 88.2674C75.8274 79.0601 81.2914 58.668 72.0841 42.7204L70.352 43.7204ZM39.5401 28.2561C51.5978 26.8416 63.8984 32.5423 70.352 43.7204L72.0841 42.7204C65.217 30.8263 52.1296 24.7655 39.3071 26.2697L39.5401 28.2561ZM58.8798 86.5354L37.0583 99.134L38.0583 100.866L59.8798 88.2674L58.8798 86.5354ZM37.8826 0.0198479L38.4238 27.2827L40.4234 27.2431L39.8822 -0.0198479L37.8826 0.0198479ZM38.5581 99.9801L38.0169 72.7172L36.0173 72.757L36.5585 100.02L38.5581 99.9801Z" fill="#F0F0F0" mask="url(#path-1-inside-1)"/>
</svg>
