<svg width="616" height="200" viewBox="0 0 616 200" fill="none" xmlns="http://www.w3.org/2000/svg">
<path d="M0.122512 0.0080736C10.0975 0.192341 20.1949 -0.421883 30.0475 0.683724C51.7723 3.01778 69.152 18.9262 74.4761 40.2399C79.6778 61.185 71.4163 83.42 53.7305 95.9502C52.6902 96.6873 51.5887 97.4857 50.3647 98.3457C54.5261 105.409 58.6262 112.35 62.7264 119.291C66.8266 126.232 70.9267 133.172 75.3941 140.666C49.9364 140.666 25.0294 140.666 0.122512 140.666C0.122512 93.8004 0.122512 46.9349 0.122512 0.0080736Z" fill="#EDEDED"/>
<path d="M225.325 70.337C225.325 109.156 193.931 140.666 155.255 140.666C116.579 140.666 85.1855 109.156 85.1855 70.337C85.1855 31.5179 116.579 0.00809772 155.255 0.00809772C193.931 0.0695203 225.325 31.5793 225.325 70.337Z" fill="#EDEDED"/>
<path d="M300.841 140.666C262.165 140.666 230.833 109.095 230.833 70.337C230.833 31.5179 262.288 0.0695053 300.903 0.0695053C339.579 0.0695053 370.911 31.6407 370.911 70.3984C370.973 109.217 339.518 140.727 300.841 140.666Z" fill="#EDEDED"/>
<path d="M522.801 140.727C529.655 127.583 536.509 114.438 543.302 101.478C540.058 99.4513 536.753 97.67 533.755 95.5202C515.396 82.4372 507.563 58.7895 514.294 36.9845C520.842 15.6094 540.67 0.0695053 562.946 0.0695053C576.47 0.0695053 604.498 0.0695053 605.355 0.0695053C598.439 13.2754 591.463 26.4812 584.731 39.2571C588.893 42.0826 593.177 44.5395 596.91 47.6106C613.677 61.4307 620.103 84.7099 613.004 105.102C605.599 126.293 586.445 140.482 564.353 140.789L522.801 140.727Z" fill="#EDEDED"/>
<path d="M438.901 98.4685C458.239 65.8531 477.332 32.8078 496.792 0.0695217C496.792 46.9964 496.792 94.3532 496.792 140.727C458.3 140.727 419.746 140.727 380.948 140.727C380.948 94.5375 380.948 47.1192 380.948 0.00809772C400.469 32.8078 419.501 65.8531 438.901 98.4685Z" fill="#EDEDED"/>
<path d="M0 199.509V176.168H9.79142C17.135 176.168 22.3979 180.59 22.3979 187.838C22.3979 195.086 17.135 199.509 9.85262 199.509H0ZM16.217 187.838C16.217 184.214 14.0752 181.45 9.79142 181.45H5.99725V194.288H9.79142C13.8304 194.288 16.217 191.278 16.217 187.838Z" fill="#EDEDED"/>
<path d="M45.2853 176.168H51.2826V189.927L60.7068 176.168H66.8876V199.509H60.8292V185.136L51.0378 199.57H45.2853V176.168Z" fill="#EDEDED"/>
<path d="M89.5302 196.253L92.59 192.138C94.2423 193.796 97.3021 194.595 99.3216 194.595C102.075 194.595 103.605 193.612 103.605 192.322C103.605 190.971 102.443 190.357 99.0768 190.357H94.3035V185.136H99.0768C101.525 185.136 103.177 184.521 103.177 183.293C103.177 181.819 101.341 181.143 98.8932 181.143C96.7514 181.143 94.3647 181.942 92.7124 183.354L89.8362 179.546C91.7944 177.335 95.2214 175.738 99.5052 175.738C105.441 175.738 109.113 178.318 109.113 182.126C109.113 184.829 106.788 186.917 104.034 187.408C106.482 187.654 109.48 189.558 109.48 192.936C109.48 197.052 105.258 199.877 99.444 199.877C95.099 199.939 91.3661 198.403 89.5302 196.253Z" fill="#EDEDED"/>
<path d="M148.585 199.509L147.422 196.13H138.243L137.08 199.509H130.287L139.038 176.168H146.565L155.378 199.509H148.585ZM142.832 182.126L139.895 190.909H145.831L142.832 182.126Z" fill="#EDEDED"/>
<path d="M177.041 176.168H183.038V189.927L192.463 176.168H198.643V199.509H192.585V185.136L182.794 199.57H177.041V176.168ZM187.873 175.185C185.425 175.185 183.161 174.018 181.753 172.114L184.079 170.21C184.935 171.377 186.221 172.237 187.934 172.237C189.525 172.237 190.872 171.5 191.728 170.21L194.054 172.114C192.585 174.018 190.382 175.185 187.873 175.185Z" fill="#EDEDED"/>
<path d="M238.482 199.509V190.111H228.813V199.509H222.816V176.168H228.813V184.89H238.482V176.168H244.48V199.509H238.482Z" fill="#EDEDED"/>
<path d="M297.476 176.168H303.473V189.927L312.897 176.168H319.078V199.509H313.02V185.136L303.228 199.57H297.476V176.168Z" fill="#EDEDED"/>
<path d="M372.135 176.168H383.763C389.025 176.168 391.84 179.731 391.84 183.969C391.84 188.145 388.964 191.708 383.763 191.708H378.132V199.57H372.135V176.168ZM385.782 183.969C385.782 182.372 384.619 181.45 382.967 181.45H378.132V186.487H382.967C384.619 186.426 385.782 185.504 385.782 183.969Z" fill="#EDEDED"/>
<path d="M414.544 176.168H431.618V181.45H420.541V185.074H431.373V190.357H420.541V194.288H431.618V199.57H414.544V176.168Z" fill="#EDEDED"/>
<path d="M475.435 199.509V184.337L469.56 199.509H466.928L461.054 184.337V199.509H455.056V176.168H463.379L468.214 188.821L473.109 176.168H481.432V199.509H475.435Z" fill="#EDEDED"/>
<path d="M504.38 187.9C504.38 180.775 509.705 175.799 516.865 175.799C523.963 175.799 529.287 180.775 529.287 187.9C529.287 195.025 523.963 200 516.865 200C509.705 199.939 504.38 194.963 504.38 187.9ZM523.168 187.9C523.168 184.092 520.72 181.143 516.865 181.143C513.009 181.143 510.5 184.092 510.5 187.9C510.5 191.708 512.948 194.656 516.865 194.656C520.659 194.656 523.168 191.647 523.168 187.9Z" fill="#EDEDED"/>
<path d="M567.902 199.509V190.111H558.233V199.509H552.236V176.168H558.233V184.89H567.902V176.168H573.9V199.509H567.902Z" fill="#EDEDED"/>
<path d="M603.213 181.45H596.665V176.168H615.697V181.45H609.21V199.57H603.213V181.45Z" fill="#EDEDED"/>
</svg>
